<svg width="88" height="99" viewBox="0 0 88 99" fill="none" xmlns="http://www.w3.org/2000/svg">
<path d="M79.1973 49.2476V21.1724C79.1973 20.4578 78.903 19.7724 78.379 19.267L63.7154 5.1271C63.1914 4.62173 62.4807 4.33786 61.7398 4.33786H7.47633C5.93307 4.33786 4.68201 5.54427 4.68201 7.03244V91.4627C4.68201 92.951 5.93307 94.1573 7.47633 94.1573H37.2824" stroke="black" stroke-width="8" stroke-linecap="round" stroke-linejoin="round"/>
<path d="M23.3104 40.2657H60.5681M23.3104 22.3018H41.9392M23.3104 58.2296H37.282" stroke="black" stroke-width="8" stroke-linecap="round" stroke-linejoin="round"/>
<path d="M69.6692 71.4311L74.3264 66.9401C76.3658 64.9735 79.6724 64.9735 81.7118 66.9401C83.7512 68.9067 83.7512 72.0953 81.7118 74.0619L77.0546 78.5529M69.6692 71.4311L55.7391 84.864C55.0409 85.5372 54.5827 86.4071 54.4308 87.3476L53.3005 94.3373L60.5485 93.2478C61.5242 93.1009 62.4259 92.659 63.124 91.9858L77.0546 78.5529M69.6692 71.4311L77.0546 78.5529" stroke="black" stroke-width="8" stroke-linecap="round" stroke-linejoin="round"/>
<path d="M60.5686 4.33786V19.6072C60.5686 21.0953 61.8195 22.3017 63.3629 22.3017H79.1974" stroke="black" stroke-width="8" stroke-linecap="round" stroke-linejoin="round"/>
</svg>
