<svg width="30" height="29" viewBox="0 0 30 29" fill="none" xmlns="http://www.w3.org/2000/svg">
<path fill-rule="evenodd" clip-rule="evenodd" d="M7.78384 7.52433C8.14996 7.17042 8.74355 7.17042 9.10966 7.52433L15.0001 13.2184L20.8904 7.52433C21.2566 7.17042 21.8501 7.17042 22.2163 7.52433C22.5824 7.87824 22.5824 8.45205 22.2163 8.80596L16.3259 14.5L22.2163 20.194C22.5824 20.548 22.5824 21.1218 22.2163 21.4757C21.8501 21.8296 21.2566 21.8296 20.8904 21.4757L15.0001 15.7816L9.10966 21.4757C8.74355 21.8296 8.14996 21.8296 7.78384 21.4757C7.41772 21.1218 7.41772 20.548 7.78384 20.194L13.6742 14.5L7.78384 8.80596C7.41772 8.45205 7.41772 7.87824 7.78384 7.52433Z" fill="white"/>
</svg>
