<svg width="16" height="15" viewBox="0 0 16 15" fill="none" xmlns="http://www.w3.org/2000/svg">
<path d="M15.3508 7.67107C15.3514 7.15999 15.3082 6.64981 15.2216 6.14612H8.14893V9.03457H12.1998C12.1169 9.49589 11.9415 9.93566 11.6841 10.3274C11.4266 10.719 11.0926 11.0546 10.702 11.3137V13.1886H13.1196C14.5352 11.8834 15.3508 9.95328 15.3508 7.67107Z" fill="#4285F4"/>
<path d="M8.14882 15C10.1727 15 11.8768 14.3354 13.1195 13.1896L10.7019 11.3147C10.029 11.7709 9.16233 12.0313 8.14882 12.0313C6.19263 12.0313 4.53227 10.7126 3.93854 8.93561H1.448V10.8678C2.07221 12.11 3.02938 13.1541 4.21264 13.8838C5.39589 14.6135 6.75867 14.9999 8.14882 15Z" fill="#34A853"/>
<path d="M3.93855 8.9356C3.62466 8.00442 3.62466 6.99603 3.93855 6.06486V4.13263H1.448C0.922892 5.17755 0.649414 6.33079 0.649414 7.50023C0.649414 8.66967 0.922892 9.82291 1.448 10.8678L3.93855 8.9356Z" fill="#FBBC04"/>
<path d="M8.14882 2.96914C9.21835 2.95167 10.2518 3.35577 11.0258 4.09411L13.1664 1.95355C11.809 0.678674 10.0109 -0.0212563 8.14882 0.000492054C6.75867 0.000555411 5.39589 0.386995 4.21264 1.11667C3.02938 1.84634 2.07221 2.89052 1.448 4.13265L3.93854 6.06488C4.53227 4.28785 6.19263 2.96914 8.14882 2.96914Z" fill="#EA4335"/>
</svg>
