<svg width="13" height="13" viewBox="0 0 13 13" fill="none" xmlns="http://www.w3.org/2000/svg">
<path d="M6.29547 1.5C3.53405 1.5 1.29547 3.73857 1.29547 6.5C1.29547 9.2614 3.53405 11.5 6.29547 11.5C9.05687 11.5 11.2955 9.2614 11.2955 6.5C11.2955 3.73857 9.05687 1.5 6.29547 1.5Z" stroke="black" stroke-width="2" stroke-linecap="round" stroke-linejoin="round"/>
<path d="M2.43103 9.67285C2.43103 9.67285 3.54554 8.25 6.29553 8.25C9.04553 8.25 10.1601 9.67285 10.1601 9.67285" stroke="black" stroke-width="2" stroke-linecap="round" stroke-linejoin="round"/>
<path d="M6.29547 6.5C7.12392 6.5 7.79547 5.82845 7.79547 5C7.79547 4.17158 7.12392 3.5 6.29547 3.5C5.46702 3.5 4.79547 4.17158 4.79547 5C4.79547 5.82845 5.46702 6.5 6.29547 6.5Z" stroke="black" stroke-width="2" stroke-linecap="round" stroke-linejoin="round"/>
</svg>
